<svg width="19" height="22" viewBox="0 0 19 22" fill="none" xmlns="http://www.w3.org/2000/svg">
<path d="M18.6077 17.3884C18.5372 17.3467 18.0059 17.008 17.474 15.9836C16.4972 14.1024 16.2921 11.4523 16.2921 9.56044C16.2921 9.55221 16.2919 9.54405 16.2916 9.53586C16.281 7.03553 14.6356 4.88015 12.2811 3.91307V2.43406C12.2811 1.0919 11.0832 0 9.61065 0H9.38934C7.91682 0 6.71885 1.0919 6.71885 2.43406V3.91299C4.35648 4.88318 2.70786 7.04957 2.70786 9.56044C2.70786 11.4523 2.50282 14.1023 1.52597 15.9836C0.994099 17.008 0.462881 17.3466 0.392252 17.3884C0.0948218 17.5136 -0.0518297 17.803 0.0165951 18.0962C0.0856765 18.3923 0.38986 18.5965 0.722041 18.5965H5.87838C5.90718 20.3949 7.5202 21.85 9.50002 21.85C11.4798 21.85 13.0929 20.3949 13.1217 18.5965H18.278C18.6101 18.5965 18.9144 18.3923 18.9834 18.0962C19.0518 17.803 18.9052 17.5136 18.6077 17.3884ZM8.12585 2.43406C8.12585 1.799 8.69266 1.28236 9.38939 1.28236H9.6107C10.3074 1.28236 10.8742 1.799 10.8742 2.43406V3.49741C10.4302 3.41389 9.97055 3.36994 9.49983 3.36994C9.02925 3.36994 8.56974 3.41385 8.12589 3.49728L8.12585 2.43406ZM9.50002 20.5676C8.29599 20.5676 7.31389 19.6878 7.28533 18.5965H11.7147C11.6861 19.6877 10.704 20.5676 9.50002 20.5676ZM12.3327 17.3141C12.3325 17.3141 2.32526 17.3141 2.32526 17.3141C2.44696 17.1415 2.57082 16.9461 2.69393 16.7252C3.63678 15.0334 4.11486 12.6229 4.11486 9.56044C4.11486 6.85407 6.53055 4.6523 9.49978 4.6523C12.469 4.6523 14.8847 6.85407 14.8847 9.56258C14.8847 9.57047 14.8848 9.57832 14.8852 9.58618C14.8878 12.6363 15.3659 15.0382 16.3061 16.7252C16.4292 16.9461 16.5531 17.1415 16.6748 17.3141H12.3327Z" fill="#EB1C24"/>
</svg>
