<svg width="20" height="20" viewBox="0 0 20 20" fill="none" xmlns="http://www.w3.org/2000/svg">
<path d="M16.875 0H3.125C1.3991 0 0 1.3991 0 3.125V13.125C0 14.8509 1.3991 16.25 3.125 16.25H15.3687L18.9313 19.8187C19.0492 19.9357 19.2089 20.001 19.375 20C19.7202 20 20 19.7202 20 19.375V3.125C20 1.3991 18.6009 0 16.875 0ZM18.75 17.8687L16.0687 15.1812C15.9508 15.0642 15.7911 14.999 15.625 15H3.125C2.08945 15 1.25 14.1605 1.25 13.125V3.125C1.25 2.08945 2.08945 1.25 3.125 1.25H16.875C17.9105 1.25 18.75 2.08945 18.75 3.125V17.8687Z" fill="#EB1C24"/>
<path d="M10 9.375C10.6904 9.375 11.25 8.81536 11.25 8.125C11.25 7.43464 10.6904 6.875 10 6.875C9.30964 6.875 8.75 7.43464 8.75 8.125C8.75 8.81536 9.30964 9.375 10 9.375Z" fill="#EB1C24"/>
<path d="M14.375 9.375C15.0654 9.375 15.625 8.81536 15.625 8.125C15.625 7.43464 15.0654 6.875 14.375 6.875C13.6846 6.875 13.125 7.43464 13.125 8.125C13.125 8.81536 13.6846 9.375 14.375 9.375Z" fill="#EB1C24"/>
<path d="M5.625 9.375C6.31536 9.375 6.875 8.81536 6.875 8.125C6.875 7.43464 6.31536 6.875 5.625 6.875C4.93464 6.875 4.375 7.43464 4.375 8.125C4.375 8.81536 4.93464 9.375 5.625 9.375Z" fill="#EB1C24"/>
</svg>
