<svg width="25" height="25" viewBox="0 0 25 25" fill="none" xmlns="http://www.w3.org/2000/svg">
<path d="M24.6341 11.8106C24.8362 11.8106 25 11.6493 25 11.4503V8.72547C25 8.05964 24.4498 7.51796 23.7736 7.51796H13.237C12.5608 7.51796 12.0106 8.05964 12.0106 8.72547V13.4953C12.0106 14.161 12.5608 14.7027 13.237 14.7027H19.3492C19.4837 14.7027 19.6142 14.7499 19.7168 14.8358L22.2448 16.9514C22.3646 17.0516 22.5109 17.1033 22.6599 17.1033C22.7515 17.1033 22.8441 17.0837 22.9318 17.0437C23.1622 16.9389 23.3053 16.7185 23.3053 16.4686V14.7027H23.7736C24.4499 14.7027 25 14.161 25 13.4953V13.1049C25 12.9059 24.8362 12.7446 24.6341 12.7446C24.432 12.7446 24.2682 12.9059 24.2682 13.1049V13.4953C24.2682 13.7638 24.0464 13.9822 23.7737 13.9822H23.2172C22.8622 13.9822 22.5735 14.2665 22.5735 14.6159V16.2807L20.1908 14.2868C19.9561 14.0903 19.6573 13.9822 19.3493 13.9822H13.237C12.9643 13.9822 12.7425 13.7638 12.7425 13.4953V8.72547C12.7425 8.45696 12.9643 8.23851 13.237 8.23851H23.7736C24.0463 8.23851 24.2681 8.45696 24.2681 8.72547V11.4503C24.2681 11.6493 24.4319 11.8106 24.6341 11.8106Z" fill="white"/>
<path d="M1.22645 7.18477H1.69472V8.95059C1.69472 9.20049 1.83782 9.42087 2.06819 9.52574C2.15596 9.5657 2.24856 9.58532 2.34018 9.58532C2.48904 9.58532 2.63551 9.53358 2.75521 9.43342L5.28323 7.31782C5.38574 7.23199 5.51629 7.18472 5.65084 7.18472H8.41436C8.61646 7.18472 8.78026 7.02344 8.78026 6.82447C8.78026 6.62549 8.61646 6.46421 8.41436 6.46421H5.65084C5.34286 6.46421 5.04397 6.5724 4.80924 6.76878L2.42658 8.76282V7.09793C2.42658 6.74849 2.13784 6.46421 1.78297 6.46421H1.22645C0.953732 6.46421 0.731855 6.24581 0.731855 5.9773V1.20751C0.731855 0.939004 0.953732 0.720554 1.22645 0.720554H11.763C12.0357 0.720554 12.2576 0.939004 12.2576 1.20751V5.9773C12.2576 6.24581 12.0357 6.46421 11.763 6.46421H10.1068C9.90469 6.46421 9.74088 6.62549 9.74088 6.82447C9.74088 7.02344 9.90469 7.18472 10.1068 7.18472H11.763C12.4393 7.18472 12.9895 6.64304 12.9895 5.97726V1.20751C12.9895 0.541678 12.4393 0 11.763 0H1.22645C0.550173 0 0 0.541678 0 1.20751V5.9773C0 6.64309 0.550173 7.18477 1.22645 7.18477Z" fill="white"/>
<path d="M11.763 15.0359H1.22645C0.550173 15.0359 0 15.5776 0 16.2434V21.0132C0 21.679 0.550173 22.2207 1.22645 22.2207H1.69472V23.9865C1.69472 24.2364 1.83782 24.4568 2.06819 24.5616C2.15596 24.6016 2.24856 24.6212 2.34018 24.6212C2.48904 24.6212 2.63551 24.5695 2.75521 24.4693L5.28323 22.3537C5.38574 22.2679 5.51629 22.2206 5.65084 22.2206H11.763C12.4393 22.2206 12.9895 21.6789 12.9895 21.0132V16.2434C12.9895 15.5775 12.4393 15.0359 11.763 15.0359ZM12.2576 21.0132C12.2576 21.2817 12.0357 21.5001 11.763 21.5001H5.65084C5.34286 21.5001 5.04397 21.6083 4.80924 21.8047L2.42658 23.7987V22.1338C2.42658 21.7844 2.13784 21.5001 1.78297 21.5001H1.22645C0.953732 21.5001 0.731855 21.2817 0.731855 21.0132V16.2434C0.731855 15.9749 0.953732 15.7565 1.22645 15.7565H11.763C12.0357 15.7565 12.2576 15.9749 12.2576 16.2434V21.0132Z" fill="white"/>
<path d="M2.69116 4.14402C2.18382 4.45826 1.88092 4.99772 1.88092 5.58705C1.88092 5.78603 2.04473 5.94731 2.24682 5.94731H4.97737C5.17947 5.94731 5.34328 5.78603 5.34328 5.58705C5.34328 4.99772 5.04038 4.45826 4.53304 4.14402C4.49479 4.12031 4.47199 4.07963 4.47199 4.03516C4.47199 3.99438 4.49157 3.95654 4.52571 3.9312C4.94704 3.61908 5.1718 3.12313 5.12702 2.60458C5.06421 1.87758 4.45895 1.29138 3.71918 1.24113C3.29257 1.21204 2.88613 1.35384 2.57468 1.63999C2.26758 1.9222 2.09147 2.32116 2.09147 2.7346C2.09147 3.20482 2.32033 3.6536 2.70362 3.93509C2.73399 3.9574 2.75211 3.99481 2.75211 4.0352C2.75221 4.07963 2.7294 4.12031 2.69116 4.14402ZM3.14126 3.35749C2.93927 3.20915 2.82342 2.98209 2.82342 2.73455C2.82342 2.51692 2.91245 2.31525 3.07416 2.16672C3.23562 2.01828 3.44675 1.94437 3.66892 1.95995C4.05202 1.98596 4.36542 2.28933 4.3979 2.66565C4.42124 2.9355 4.30452 3.19338 4.08581 3.35547C3.86946 3.51574 3.74028 3.76987 3.74028 4.0352C3.74028 4.32881 3.891 4.59751 4.14344 4.75388C4.32825 4.86837 4.46608 5.03446 4.54275 5.22685H2.68159C2.75827 5.03446 2.89609 4.86837 3.0809 4.75388C3.33335 4.59746 3.48402 4.32881 3.48402 4.0352C3.48407 3.76843 3.35591 3.51512 3.14126 3.35749Z" fill="white"/>
<path d="M10.7428 1.592H6.47168C6.26958 1.592 6.10577 1.75327 6.10577 1.95225C6.10577 2.15122 6.26958 2.3125 6.47168 2.3125H10.7428C10.9449 2.3125 11.1087 2.15122 11.1087 1.95225C11.1087 1.75327 10.9449 1.592 10.7428 1.592Z" fill="white"/>
<path d="M10.7428 3.23213H9.39685C9.19475 3.23213 9.03094 3.39341 9.03094 3.59238C9.03094 3.79136 9.19475 3.95264 9.39685 3.95264H10.7428C10.9449 3.95264 11.1087 3.79136 11.1087 3.59238C11.1087 3.39341 10.9449 3.23213 10.7428 3.23213Z" fill="white"/>
<path d="M6.47168 3.95268H7.69442C7.89652 3.95268 8.06032 3.79141 8.06032 3.59243C8.06032 3.39345 7.89652 3.23218 7.69442 3.23218H6.47168C6.26958 3.23218 6.10577 3.39345 6.10577 3.59243C6.10577 3.79141 6.26958 3.95268 6.47168 3.95268Z" fill="white"/>
<path d="M6.47168 5.59282H10.7428C10.9449 5.59282 11.1087 5.43154 11.1087 5.23257C11.1087 5.03359 10.9449 4.87231 10.7428 4.87231H6.47168C6.26958 4.87231 6.10577 5.03359 6.10577 5.23257C6.10577 5.43154 6.26958 5.59282 6.47168 5.59282Z" fill="white"/>
<path d="M4.53313 19.1799C4.49489 19.1562 4.47208 19.1155 4.47208 19.071C4.47208 19.0302 4.49167 18.9924 4.52581 18.967C4.94714 18.6549 5.1719 18.159 5.12712 17.6404C5.06431 16.9134 4.45904 16.3272 3.71928 16.277C3.29267 16.2482 2.88623 16.3896 2.57478 16.6758C2.26768 16.9581 2.09156 17.357 2.09156 17.7704C2.09156 18.2407 2.32042 18.6895 2.70371 18.9709C2.73409 18.9933 2.75221 19.0307 2.75221 19.0711C2.75221 19.1155 2.7294 19.1562 2.69116 19.1799C2.18382 19.4941 1.88092 20.0336 1.88092 20.6229C1.88092 20.8219 2.04473 20.9832 2.24682 20.9832H4.97737C5.17947 20.9832 5.34328 20.8219 5.34328 20.6229C5.34337 20.0336 5.04047 19.4942 4.53313 19.1799ZM2.68159 20.2627C2.75827 20.0703 2.89609 19.9042 3.0809 19.7897C3.33335 19.6333 3.48402 19.3647 3.48402 19.0711C3.48402 18.8043 3.35586 18.551 3.14122 18.3934C2.93922 18.245 2.82337 18.018 2.82337 17.7704C2.82337 17.5528 2.9124 17.3511 3.07411 17.2026C3.23557 17.0541 3.4467 16.9806 3.66887 16.9958C4.05197 17.0218 4.36537 17.3252 4.39785 17.7015C4.42119 17.9714 4.30447 18.2293 4.08577 18.3914C3.86941 18.5516 3.74023 18.8058 3.74023 19.0711C3.74023 19.3647 3.89095 19.6334 4.1434 19.7898C4.3282 19.9043 4.46603 20.0704 4.54271 20.2627H2.68159V20.2627Z" fill="white"/>
<path d="M10.7428 16.6279H8.60718C8.40508 16.6279 8.24127 16.7892 8.24127 16.9882C8.24127 17.1871 8.40508 17.3484 8.60718 17.3484H10.7428C10.9449 17.3484 11.1087 17.1871 11.1087 16.9882C11.1087 16.7892 10.9448 16.6279 10.7428 16.6279Z" fill="white"/>
<path d="M6.92266 16.6279H6.47168C6.26958 16.6279 6.10577 16.7892 6.10577 16.9882C6.10577 17.1871 6.26958 17.3484 6.47168 17.3484H6.92266C7.12475 17.3484 7.28856 17.1871 7.28856 16.9882C7.28856 16.7892 7.12475 16.6279 6.92266 16.6279Z" fill="white"/>
<path d="M10.7428 18.268H8.60718C8.40508 18.268 8.24127 18.4293 8.24127 18.6282C8.24127 18.8272 8.40508 18.9885 8.60718 18.9885H10.7428C10.9449 18.9885 11.1087 18.8272 11.1087 18.6282C11.1087 18.4293 10.9448 18.268 10.7428 18.268Z" fill="white"/>
<path d="M6.92266 18.268H6.47168C6.26958 18.268 6.10577 18.4293 6.10577 18.6282C6.10577 18.8272 6.26958 18.9885 6.47168 18.9885H6.92266C7.12475 18.9885 7.28856 18.8272 7.28856 18.6282C7.28861 18.4293 7.12475 18.268 6.92266 18.268Z" fill="white"/>
<path d="M10.7428 19.9081H8.60718C8.40508 19.9081 8.24127 20.0694 8.24127 20.2684C8.24127 20.4673 8.40508 20.6286 8.60718 20.6286H10.7428C10.9449 20.6286 11.1087 20.4673 11.1087 20.2684C11.1087 20.0694 10.9448 19.9081 10.7428 19.9081Z" fill="white"/>
<path d="M6.92266 19.9081H6.47168C6.26958 19.9081 6.10577 20.0694 6.10577 20.2684C6.10577 20.4673 6.26958 20.6286 6.47168 20.6286H6.92266C7.12475 20.6286 7.28856 20.4673 7.28856 20.2684C7.28861 20.0694 7.12475 19.9081 6.92266 19.9081Z" fill="white"/>
<path d="M20.467 11.662C19.9597 11.9762 19.6568 12.5157 19.6568 13.105C19.6568 13.304 19.8206 13.4652 20.0227 13.4652H22.7532C22.9553 13.4652 23.1192 13.304 23.1192 13.105C23.1192 12.5157 22.8163 11.9762 22.3089 11.662C22.2707 11.6383 22.2479 11.5976 22.2479 11.5531C22.2479 11.5128 22.266 11.4753 22.2964 11.453C22.6797 11.1715 22.9085 10.7227 22.9085 10.2525C22.9085 9.83911 22.7323 9.44014 22.4253 9.15793C22.1139 8.87168 21.708 8.72993 21.2808 8.75907C20.541 8.80932 19.9358 9.39547 19.873 10.1225C19.8282 10.641 20.0529 11.137 20.4743 11.4492C20.5084 11.4745 20.528 11.5124 20.528 11.5531C20.528 11.5976 20.5052 11.6383 20.467 11.662ZM20.9144 10.8734C20.6956 10.7113 20.5789 10.4534 20.6022 10.1835C20.6347 9.80727 20.9482 9.50391 21.3312 9.47789C21.5526 9.4625 21.7645 9.53627 21.926 9.68466C22.0877 9.83324 22.1768 10.0349 22.1768 10.2525C22.1768 10.5 22.0609 10.727 21.8589 10.8754C21.6443 11.033 21.5161 11.2864 21.5161 11.5531C21.5161 11.8467 21.6668 12.1154 21.9192 12.2718C22.104 12.3863 22.2419 12.5524 22.3185 12.7447H20.4575C20.5341 12.5524 20.672 12.3863 20.8567 12.2718C21.1092 12.1154 21.2598 11.8467 21.2598 11.5531C21.2599 11.2877 21.1307 11.0337 20.9144 10.8734Z" fill="white"/>
<path d="M14.2572 9.83045H16.0579C16.26 9.83045 16.4238 9.66917 16.4238 9.47019C16.4238 9.27122 16.26 9.10994 16.0579 9.10994H14.2572C14.0551 9.10994 13.8913 9.27122 13.8913 9.47019C13.8912 9.66917 14.0551 9.83045 14.2572 9.83045Z" fill="white"/>
<path d="M18.5284 9.10994H17.7621C17.56 9.10994 17.3962 9.27122 17.3962 9.47019C17.3962 9.66917 17.56 9.83045 17.7621 9.83045H18.5284C18.7305 9.83045 18.8943 9.66917 18.8943 9.47019C18.8943 9.27122 18.7305 9.10994 18.5284 9.10994Z" fill="white"/>
<path d="M18.5283 10.75H14.2572C14.0551 10.75 13.8913 10.9113 13.8913 11.1103C13.8913 11.3093 14.0551 11.4705 14.2572 11.4705H18.5283C18.7304 11.4705 18.8942 11.3093 18.8942 11.1103C18.8942 10.9113 18.7304 10.75 18.5283 10.75Z" fill="white"/>
<path d="M18.5283 12.3902H14.2572C14.0551 12.3902 13.8913 12.5514 13.8913 12.7504C13.8913 12.9494 14.0551 13.1107 14.2572 13.1107H18.5283C18.7304 13.1107 18.8942 12.9494 18.8942 12.7504C18.8942 12.5514 18.7304 12.3902 18.5283 12.3902Z" fill="white"/>
</svg>
