<svg width="26" height="17" viewBox="0 0 26 17" fill="none" xmlns="http://www.w3.org/2000/svg">
<path d="M25.986 11.7268C25.9213 10.2476 25.6622 8.6076 25.2736 7.06409C24.885 5.58489 24.3992 4.20217 23.8163 3.141C21.5494 -0.814239 19.0882 -0.203267 16.1413 0.568488C15.2021 0.793583 14.1982 1.05083 13.1619 1.1473H12.8381C11.8018 1.05083 10.7979 0.793583 9.85874 0.568488C6.91179 -0.17111 4.4506 -0.814239 2.18371 3.17316C1.6008 4.23432 1.08265 5.61705 0.726425 7.09624C0.337816 8.63975 0.078743 10.2797 0.0139748 11.7589C-0.0507934 13.3989 0.111127 14.5887 0.467352 15.4248C0.823577 16.1965 1.34172 16.6789 2.02179 16.8718C2.63709 17.0326 3.34954 16.9683 4.09437 16.6467C5.35735 16.1322 6.81464 15.0389 8.23954 13.7205C9.24345 12.7558 11.1217 12.2734 13 12.2734C14.8783 12.2734 16.7566 12.7558 17.7605 13.7205C19.1854 15.0389 20.6427 16.1322 21.9056 16.6467C22.6505 16.9361 23.3629 17.0326 23.9782 16.8718C24.6259 16.6789 25.1764 16.2287 25.5326 15.3926C25.8889 14.5887 26.0508 13.3989 25.986 11.7268ZM24.4316 14.9424C24.2373 15.3926 23.9782 15.6499 23.6544 15.7463C23.2981 15.8428 22.8448 15.7785 22.3266 15.5855C21.1932 15.1354 19.8654 14.1385 18.5701 12.9166C17.3395 11.6946 15.1697 11.0836 13 11.0836C10.8303 11.0836 8.66053 11.6946 7.39755 12.8522C6.0698 14.0742 4.74205 15.1032 3.64099 15.5212C3.12285 15.7142 2.66947 15.8106 2.31325 15.682C1.98941 15.5855 1.73033 15.3283 1.53603 14.8781C1.27695 14.2671 1.14742 13.2703 1.21219 11.7911C1.27695 10.4084 1.50364 8.83269 1.89225 7.3535C2.24848 5.97077 2.70186 4.68451 3.25239 3.71982C5.03351 0.536331 7.10609 1.05083 9.56729 1.69396C10.5712 1.95121 11.6075 2.20847 12.7409 2.30494C12.7733 2.30494 12.7733 2.30494 12.8057 2.30494H13.1619C13.1943 2.30494 13.1943 2.30494 13.2267 2.30494C14.3925 2.20847 15.4288 1.95121 16.4327 1.69396C18.8939 1.08299 20.9665 0.536331 22.7476 3.71982C23.2981 4.68451 23.7515 5.93861 24.1077 7.3535C24.464 8.83269 24.723 10.3762 24.7878 11.7911C24.8526 13.2703 24.723 14.2671 24.4316 14.9424Z" fill="black"/>
<path d="M10.0206 5.45627C9.69677 5.16686 9.30816 4.94177 8.85479 4.90961C8.8224 4.49158 8.6281 4.07355 8.33664 3.78414L8.30426 3.75198C7.94803 3.39826 7.49465 3.20532 6.97651 3.20532C6.45836 3.20532 5.9726 3.43042 5.64876 3.75198C5.3573 4.04139 5.13061 4.45942 5.09823 4.90961C4.64485 4.94177 4.25624 5.13471 3.9324 5.42412L3.90002 5.45627C3.54379 5.80999 3.34949 6.26018 3.34949 6.77469C3.34949 7.28919 3.57618 7.77154 3.90002 8.0931C4.22386 8.41467 4.61247 8.6076 5.09823 8.63976C5.13061 9.08995 5.32492 9.50798 5.64876 9.79739C6.00498 10.1511 6.45836 10.3441 6.97651 10.3441C7.49465 10.3441 7.98042 10.119 8.30426 9.79739C8.59571 9.47583 8.8224 9.08995 8.85479 8.63976C9.30816 8.6076 9.72916 8.41467 10.0206 8.0931C10.3768 7.73938 10.5711 7.28919 10.5711 6.77469C10.5711 6.26018 10.3445 5.77784 10.0206 5.45627ZM9.21101 7.25703C9.08148 7.38566 8.91955 7.44997 8.72525 7.44997H8.27187C7.94803 7.44997 7.65657 7.70722 7.65657 8.06094V8.47898C7.65657 8.67192 7.59181 8.8327 7.46227 8.96132C7.33273 9.08995 7.17081 9.15426 6.97651 9.15426C6.7822 9.15426 6.62028 9.08995 6.49075 8.96132C6.36121 8.8327 6.29644 8.67192 6.29644 8.47898V8.02879C6.29644 7.70722 6.03737 7.41782 5.68114 7.41782H5.22777C5.03346 7.41782 4.87154 7.3535 4.742 7.22488C4.64485 7.12841 4.5477 6.96762 4.5477 6.77469C4.5477 6.58175 4.61247 6.42097 4.742 6.29234C4.742 6.29234 4.742 6.29234 4.77439 6.26018C4.90392 6.16371 5.06585 6.0994 5.22777 6.0994H5.68114C6.00498 6.0994 6.29644 5.84215 6.29644 5.48843V5.03824C6.29644 4.8453 6.36121 4.68452 6.49075 4.55589C6.62028 4.42727 6.7822 4.36295 6.97651 4.36295C7.17081 4.36295 7.33273 4.42727 7.46227 4.55589C7.46227 4.55589 7.46227 4.55589 7.49465 4.58805C7.59181 4.71667 7.65657 4.87746 7.65657 5.03824V5.48843C7.65657 5.80999 7.91565 6.0994 8.27187 6.0994H8.72525C8.91955 6.0994 9.08148 6.16371 9.21101 6.29234C9.34055 6.42097 9.40532 6.58175 9.40532 6.77469C9.40532 6.96762 9.34055 7.12841 9.21101 7.25703Z" fill="black"/>
<path d="M18.6348 5.61705C19.2608 5.61705 19.7682 5.11316 19.7682 4.49158C19.7682 3.87 19.2608 3.3661 18.6348 3.3661C18.0088 3.3661 17.5013 3.87 17.5013 4.49158C17.5013 5.11316 18.0088 5.61705 18.6348 5.61705Z" fill="black"/>
<path d="M18.6348 10.1833C19.2608 10.1833 19.7682 9.67938 19.7682 9.05779C19.7682 8.43621 19.2608 7.93231 18.6348 7.93231C18.0088 7.93231 17.5013 8.43621 17.5013 9.05779C17.5013 9.67938 18.0088 10.1833 18.6348 10.1833Z" fill="black"/>
<path d="M16.3356 7.90015C16.9616 7.90015 17.469 7.39626 17.469 6.77467C17.469 6.15309 16.9616 5.6492 16.3356 5.6492C15.7096 5.6492 15.2021 6.15309 15.2021 6.77467C15.2021 7.39626 15.7096 7.90015 16.3356 7.90015Z" fill="black"/>
<path d="M20.9341 7.90015C21.5601 7.90015 22.0675 7.39626 22.0675 6.77467C22.0675 6.15309 21.5601 5.6492 20.9341 5.6492C20.3081 5.6492 19.8007 6.15309 19.8007 6.77467C19.8007 7.39626 20.3081 7.90015 20.9341 7.90015Z" fill="black"/>
</svg>
