<svg width="24" height="26" viewBox="0 0 24 26" fill="none" xmlns="http://www.w3.org/2000/svg">
<path d="M2.795 22.9623H18.2423L17.5045 20.5736C17.6139 20.6689 23.8333 26 23.8333 26V2.68125C23.7597 1.23175 22.5117 0 20.9647 0L2.80042 0.00325C1.2545 0.00325 0 1.23717 0 2.68667V20.28C0 21.8086 1.25233 22.9623 2.795 22.9623ZM14.222 6.15658L14.1863 6.16958L14.1993 6.15658H14.222ZM5.95508 7.53133C7.94083 6.08617 9.78142 6.1555 9.78142 6.1555L9.92983 6.30175C7.49992 6.88133 6.39817 7.96683 6.39817 7.96683C6.51083 7.943 11.4173 5.11225 17.3626 8.03833C17.3626 8.03833 16.2587 7.02325 13.9783 6.37325L14.1798 6.175C14.495 6.17608 16.1633 6.23458 17.9487 7.54C17.9487 7.54 19.9463 10.9525 19.9463 15.145C19.8803 15.0648 18.707 16.9498 15.6878 17.0148C15.6878 17.0148 15.1764 16.4363 14.8124 15.9315C16.5783 15.4245 17.2391 14.4105 17.2391 14.4105C13.8017 16.575 10.7889 16.237 7.18467 14.7745C7.15108 14.7745 7.13592 14.7593 7.11858 14.742V14.7355C7.10125 14.7193 7.08608 14.703 7.0525 14.703H6.9875C6.7665 14.5578 6.61917 14.4863 6.61917 14.4863C6.61917 14.4863 7.27892 15.5003 8.97433 16.0073C8.52908 16.5154 8.08817 17.0928 8.08817 17.0928C5.07 17.0213 3.96933 15.1363 3.96933 15.1363C3.96933 10.9373 5.95508 7.53133 5.95508 7.53133Z" fill="#5C6BC0"/>
<path d="M14.417 13.8352C15.1873 13.8352 15.8145 13.1852 15.8145 12.3836C15.8145 11.5873 15.1905 10.9373 14.417 10.9373V10.9406C13.65 10.9406 13.0217 11.5884 13.0195 12.3901C13.0195 13.1852 13.6468 13.8352 14.417 13.8352Z" fill="#5C6BC0"/>
<path d="M9.4141 13.8352C10.1844 13.8352 10.8116 13.1852 10.8116 12.3836C10.8116 11.5873 10.1887 10.9373 9.41844 10.9373L9.4141 10.9406C8.64385 10.9406 8.0166 11.5884 8.0166 12.3901C8.0166 13.1852 8.64385 13.8352 9.4141 13.8352Z" fill="#5C6BC0"/>
</svg>
