<svg width="19" height="18" viewBox="0 0 19 18" fill="none" xmlns="http://www.w3.org/2000/svg">
<path d="M4.35416 4.75707H13.0625C13.2813 4.75707 13.4584 4.57976 13.4584 4.36064C13.4584 4.14151 13.2813 3.9642 13.0625 3.9642H4.35416C4.13536 3.9642 3.95831 4.14151 3.95831 4.36064C3.95835 4.5798 4.1354 4.75707 4.35416 4.75707Z" fill="white"/>
<path d="M9.10416 8.72131H4.35416C4.13536 8.72131 3.95831 8.89862 3.95831 9.11774C3.95831 9.33687 4.13536 9.51418 4.35416 9.51418H9.10416C9.32296 9.51418 9.50001 9.33687 9.50001 9.11774C9.50001 8.89862 9.32296 8.72131 9.10416 8.72131Z" fill="white"/>
<path d="M17.4847 1.5857C17.4618 1.5857 17.4396 1.59146 17.4167 1.59254V1.5857C17.4167 0.711182 16.7062 0 15.8333 0H1.58335C0.710496 0 0 0.711182 0 1.5857V17.0462C0 17.2065 0.0966328 17.3512 0.244291 17.4124C0.293016 17.4329 0.344783 17.4426 0.395809 17.4426C0.498639 17.4426 0.59991 17.4024 0.675687 17.3265L4.51807 13.4784H15.8333C16.7062 13.4784 17.4167 12.7672 17.4167 11.8927V5.31744L18.5562 4.17637C18.5562 4.17637 18.5562 4.17637 18.5562 4.176C18.8384 3.8934 19 3.50239 19 3.10325C19 2.2663 18.3205 1.5857 17.4847 1.5857ZM16.625 11.8927C16.625 12.3297 16.2701 12.6855 15.8333 12.6855H4.35415C4.24902 12.6855 4.14849 12.7273 4.07428 12.8017L0.791654 16.0892V1.5857C0.791654 1.14865 1.14653 0.79287 1.58331 0.79287H15.8333C16.2702 0.79287 16.625 1.14865 16.625 1.5857V1.85648C16.5499 1.90822 16.478 1.96512 16.4132 2.03012L12.1063 6.34277H4.35415C4.13536 6.34277 3.95831 6.52009 3.95831 6.73921C3.95831 6.95833 4.13536 7.13564 4.35415 7.13564H11.4712L11.0911 9.03996C11.0648 9.17004 11.1058 9.30439 11.1993 9.39804C11.2743 9.47315 11.3756 9.51418 11.4792 9.51418C11.5047 9.51418 11.531 9.51147 11.5565 9.50645L13.5349 9.11001C13.6122 9.09452 13.6826 9.05698 13.7374 9.00161L16.625 6.1102V11.8927ZM13.2627 8.35624L11.984 8.61253L12.2399 7.33035L15.8332 3.73177L16.8569 4.75703L13.2627 8.35624ZM17.9965 3.61582L17.4167 4.19652L16.3928 3.17118L16.9729 2.5903C17.1074 2.45595 17.2937 2.37854 17.4847 2.37854C17.8836 2.37854 18.2083 2.70373 18.2083 3.10325C18.2083 3.29371 18.131 3.48073 17.9965 3.61582Z" fill="white"/>
</svg>
