<svg width="15" height="15" viewBox="0 0 15 15" fill="none" xmlns="http://www.w3.org/2000/svg">
<path d="M12.3165 0H2.68348C1.20381 0 0 1.20381 0 2.68348V12.3166C0 13.7962 1.20381 15 2.68348 15H12.3166C13.7962 15 15 13.7962 15 12.3165V2.68348C15 1.20381 13.7962 0 12.3165 0ZM14.1211 12.3165C14.1211 13.3116 13.3116 14.1211 12.3165 14.1211H2.68348C1.68844 14.1211 0.878906 13.3116 0.878906 12.3165V2.68348C0.878906 1.68844 1.68844 0.878906 2.68348 0.878906H12.3166C13.3116 0.878906 14.1211 1.68844 14.1211 2.68348V12.3165Z" fill="#ED686D"/>
<path d="M12.678 3.29493H5.98477C5.80075 2.74839 5.28381 2.35353 4.67602 2.35353C4.06822 2.35353 3.55128 2.74839 3.36727 3.29493H2.32251C2.07981 3.29493 1.88306 3.49169 1.88306 3.73438C1.88306 3.97708 2.07981 4.17383 2.32251 4.17383H3.3673C3.55131 4.72037 4.06825 5.11523 4.67605 5.11523C5.28384 5.11523 5.80078 4.72037 5.9848 4.17383H12.678C12.9207 4.17383 13.1174 3.97708 13.1174 3.73438C13.1174 3.49169 12.9207 3.29493 12.678 3.29493ZM4.67602 4.23632C4.39925 4.23632 4.17407 4.01115 4.17407 3.73438C4.17407 3.45761 4.39925 3.23244 4.67602 3.23244C4.95278 3.23244 5.17796 3.45761 5.17796 3.73438C5.17796 4.01115 4.95278 4.23632 4.67602 4.23632Z" fill="#ED686D"/>
<path d="M12.678 7.06055H11.6332C11.4492 6.51402 10.9322 6.11916 10.3244 6.11916C9.71666 6.11916 9.19972 6.51402 9.0157 7.06055H2.32251C2.07981 7.06055 1.88306 7.25731 1.88306 7.50001C1.88306 7.7427 2.07981 7.93946 2.32251 7.93946H9.0157C9.19972 8.48599 9.71669 8.88085 10.3245 8.88085C10.9322 8.88085 11.4492 8.48599 11.6332 7.93946H12.678C12.9207 7.93946 13.1174 7.7427 13.1174 7.50001C13.1174 7.25731 12.9207 7.06055 12.678 7.06055ZM10.3245 8.00195C10.0477 8.00195 9.82251 7.77677 9.82251 7.50001C9.82251 7.22324 10.0477 6.99806 10.3245 6.99806C10.6012 6.99806 10.8264 7.22324 10.8264 7.50001C10.8264 7.77677 10.6012 8.00195 10.3245 8.00195Z" fill="#ED686D"/>
<path d="M12.678 10.8262H7.86759C7.68358 10.2796 7.16663 9.88477 6.55884 9.88477C5.95105 9.88477 5.4341 10.2796 5.25009 10.8262H2.32251C2.07981 10.8262 1.88306 11.0229 1.88306 11.2656C1.88306 11.5083 2.07981 11.7051 2.32251 11.7051H5.25009C5.4341 12.2516 5.95105 12.6465 6.55884 12.6465C7.16663 12.6465 7.68358 12.2516 7.86759 11.7051H12.678C12.9207 11.7051 13.1174 11.5083 13.1174 11.2656C13.1174 11.0229 12.9207 10.8262 12.678 10.8262ZM6.55884 11.7676C6.28207 11.7676 6.05689 11.5424 6.05689 11.2656C6.05689 10.9889 6.28207 10.7637 6.55884 10.7637C6.83561 10.7637 7.06078 10.9888 7.06078 11.2656C7.06078 11.5424 6.83561 11.7676 6.55884 11.7676Z" fill="#ED686D"/>
</svg>
