<svg width="22" height="20" viewBox="0 0 22 20" fill="none" xmlns="http://www.w3.org/2000/svg">
<path d="M21.7293 7.73275L11.3186 0.110222C11.1178 -0.0367406 10.8451 -0.0367406 10.6444 0.110222L0.233595 7.73275C-0.020694 7.91896 -0.0759444 8.27603 0.110268 8.53032C0.29648 8.78461 0.653591 8.83977 0.907837 8.65364L10.9815 1.2779L21.0551 8.6536C21.1566 8.72802 21.2747 8.76384 21.3917 8.76384C21.5674 8.76384 21.7408 8.68298 21.8526 8.53027C22.0388 8.27603 21.9836 7.91896 21.7293 7.73275Z" fill="white"/>
<path d="M18.9706 8.78278C18.6555 8.78278 18.4 9.03827 18.4 9.35342V18.4367H13.8349V13.4785C13.8349 11.905 12.5547 10.625 10.9814 10.625C9.40805 10.625 8.12795 11.9051 8.12795 13.4785V18.4367H3.5628V9.35347C3.5628 9.03831 3.30727 8.78282 2.99216 8.78282C2.67704 8.78282 2.42151 9.03831 2.42151 9.35347V19.0074C2.42151 19.3225 2.67704 19.578 2.99216 19.578H8.69859C8.9987 19.578 9.24428 19.3462 9.26701 19.0518C9.26838 19.0385 9.26924 19.0239 9.26924 19.0074V13.4785C9.26924 12.5344 10.0373 11.7663 10.9814 11.7663C11.9255 11.7663 12.6936 12.5344 12.6936 13.4785V19.0074C12.6936 19.0238 12.6944 19.0381 12.6958 19.0513C12.7183 19.3459 12.9639 19.578 13.2642 19.578H18.9706C19.2858 19.578 19.5413 19.3225 19.5413 19.0074V9.35347C19.5412 9.03827 19.2858 8.78278 18.9706 8.78278Z" fill="white"/>
</svg>
