<svg width="23" height="23" viewBox="0 0 23 23" fill="none" xmlns="http://www.w3.org/2000/svg">
<path d="M21.9873 0H17.5071C17.3206 0 17.1695 0.14868 17.1695 0.332142C17.1695 0.515605 17.3206 0.664285 17.5071 0.664285H21.9873C22.1735 0.664285 22.3249 0.813273 22.3249 0.996427V7.68139C22.3249 7.86455 22.1735 8.01353 21.9873 8.01353H12.6989V7.85385C12.6989 7.20592 12.1631 6.67887 11.5046 6.67887C10.8461 6.67887 10.3104 7.20596 10.3104 7.85385V8.01353H6.87165C6.68522 8.01353 6.53406 8.16221 6.53406 8.34568C6.53406 8.52914 6.68522 8.67782 6.87165 8.67782H10.3104V14.5309L9.50856 13.6468C9.01361 13.1011 8.3034 12.7881 7.56003 12.7881C7.283 12.7881 7.0331 12.928 6.89155 13.1623C6.75 13.3966 6.74461 13.6795 6.87704 13.9189L8.22146 16.3488C8.55474 16.9512 8.97983 17.4965 9.48493 17.9693L10.9177 19.3106V20.0221C10.5672 20.0937 10.3031 20.3998 10.3031 20.7655V21.8697C10.3031 22.2884 10.6494 22.629 11.0749 22.629H16.3976C16.8232 22.629 17.1695 22.2884 17.1695 21.8697V20.7655C17.1695 20.4077 16.9163 20.1077 16.5772 20.0277V19.2894C16.8849 18.9075 17.8389 17.5061 17.8389 14.814V12.7854C17.8389 12.1375 17.3032 11.6104 16.6446 11.6104C16.4246 11.6104 16.2182 11.6693 16.0409 11.7719C15.865 11.3384 15.4339 11.0314 14.9313 11.0314C14.7112 11.0314 14.5049 11.0902 14.3276 11.1928C14.1517 10.7594 13.7206 10.4523 13.2179 10.4523C13.032 10.4523 12.8559 10.4943 12.6988 10.5692V8.67791H21.9873C22.5457 8.67791 23 8.2309 23 7.68152V0.996383C23.0001 0.446967 22.5458 0 21.9873 0V0ZM13.218 11.1164C13.5042 11.1164 13.7371 11.3455 13.7371 11.6271V12.2063C13.7371 12.3897 13.8882 12.5384 14.0747 12.5384C14.2612 12.5384 14.4123 12.3897 14.4123 12.2063C14.4123 11.9246 14.6452 11.6955 14.9314 11.6955C15.2176 11.6955 15.4505 11.9246 15.4505 12.2063V12.7853C15.4505 12.9688 15.6016 13.1175 15.7881 13.1175C15.9745 13.1175 16.1257 12.9688 16.1257 12.7853C16.1257 12.5037 16.3585 12.2746 16.6448 12.2746C16.931 12.2746 17.1639 12.5037 17.1639 12.7853V14.814C17.1639 17.6674 16.0053 18.9285 15.9948 18.9396C15.9353 19.0013 15.9022 19.0831 15.9022 19.1681V20.0061H15.0866C14.9001 20.0061 14.749 20.1547 14.749 20.3382C14.749 20.5217 14.9001 20.6703 15.0866 20.6703H16.3977C16.451 20.6703 16.4944 20.713 16.4944 20.7655V21.8697C16.4944 21.9221 16.451 21.9648 16.3977 21.9648H11.0749C11.0216 21.9648 10.9783 21.9221 10.9783 21.8697V20.7655C10.9783 20.713 11.0216 20.6703 11.0749 20.6703H13.7363C13.9228 20.6703 14.0739 20.5217 14.0739 20.3382C14.0739 20.1547 13.9228 20.0061 13.7363 20.0061H11.5929V19.1681C11.5929 19.0772 11.5549 18.9902 11.488 18.9275L9.95033 17.4881C9.49621 17.0629 9.11406 16.5728 8.81443 16.0312L7.47001 13.6013C7.43825 13.5175 7.46996 13.4649 7.55998 13.4523C8.11118 13.4523 8.63775 13.6843 9.00472 14.089L10.3831 15.6089C10.5787 15.8353 10.9949 15.6909 10.9854 15.3878V7.85385C10.9854 7.57223 11.2183 7.34311 11.5045 7.34311C11.7907 7.34311 12.0236 7.57223 12.0236 7.85385V11.6271C12.0236 11.8106 12.1747 11.9593 12.3612 11.9593C12.5477 11.9593 12.6988 11.8106 12.6988 11.6271C12.6989 11.3455 12.9318 11.1164 13.218 11.1164Z" fill="white"/>
<path d="M5.52131 8.01349H1.01272C0.826564 8.01349 0.675132 7.8645 0.675132 7.68135V0.996383C0.675132 0.813229 0.826564 0.66424 1.01272 0.66424H16.1567C16.3432 0.66424 16.4943 0.515561 16.4943 0.332098C16.4943 0.148635 16.3432 0 16.1567 0H1.01272C0.454296 0 0 0.446967 0 0.996383V7.68135C0 8.23072 0.454296 8.67773 1.01272 8.67773H5.52131C5.70774 8.67773 5.8589 8.52905 5.8589 8.34559C5.8589 8.16213 5.70778 8.01349 5.52131 8.01349Z" fill="white"/>
<path d="M13.7216 4.08939C13.9199 3.89921 13.99 3.62006 13.9044 3.36089C13.8188 3.10171 13.5953 2.91635 13.3212 2.87715L12.5352 2.7648C12.5198 2.76259 12.5064 2.75308 12.4995 2.73934L12.1479 2.03855C12.0254 1.79418 11.7772 1.64236 11.5002 1.64236C11.2232 1.64236 10.9749 1.79414 10.8524 2.03855L10.5008 2.73938C10.4939 2.75308 10.4806 2.76263 10.4653 2.7648L9.67908 2.87715C9.40496 2.91635 9.18152 3.10171 9.09594 3.36089C9.01037 3.62006 9.0804 3.89921 9.27873 4.08939L9.84758 4.63496C9.85872 4.64565 9.8638 4.66099 9.86115 4.67611L9.72687 5.44638C9.68007 5.71492 9.79017 5.98129 10.0142 6.14146C10.2383 6.30168 10.5299 6.32241 10.775 6.19561L11.4782 5.83191C11.4919 5.82475 11.5083 5.82475 11.5221 5.83191L12.2253 6.19561C12.3319 6.25072 12.4473 6.27799 12.5621 6.27799C12.7112 6.27799 12.8594 6.23198 12.9861 6.14146C13.2101 5.98129 13.3202 5.71492 13.2733 5.44638L13.1391 4.67611C13.1365 4.66103 13.1415 4.64565 13.1527 4.63496L13.7216 4.08939ZM12.6814 4.15935C12.5111 4.32266 12.4335 4.55783 12.4737 4.78841L12.608 5.55877C12.6093 5.56655 12.6129 5.58723 12.5892 5.60416C12.5655 5.62113 12.5465 5.61132 12.5394 5.60769L11.8363 5.24404C11.731 5.18954 11.6156 5.16236 11.5001 5.16236C11.3847 5.16236 11.2692 5.18959 11.164 5.244L10.4609 5.60769C10.4538 5.61132 10.4349 5.62122 10.4111 5.60416C10.3873 5.58719 10.3909 5.5665 10.3923 5.55872L10.5266 4.78841C10.5668 4.55779 10.4891 4.32262 10.3188 4.15935L9.75001 3.61383C9.74426 3.6083 9.72899 3.59363 9.73802 3.56618C9.74709 3.53869 9.76825 3.53564 9.77615 3.53454L10.5623 3.42219C10.7977 3.38851 11.001 3.2431 11.1062 3.03338L11.4577 2.33259C11.4613 2.32548 11.4707 2.30669 11.5001 2.30669C11.5295 2.30669 11.5389 2.32552 11.5424 2.33259L11.894 3.03334C11.9992 3.24314 12.2025 3.38851 12.438 3.42223L13.224 3.53458C13.232 3.53573 13.2531 3.53873 13.2622 3.56623C13.2712 3.59367 13.256 3.60835 13.2502 3.61387L12.6814 4.15935Z" fill="white"/>
<path d="M6.54248 5.44643L6.4082 4.67616C6.40555 4.66109 6.41063 4.64571 6.42182 4.63501L6.99062 4.08944C7.18895 3.89926 7.25898 3.62011 7.17341 3.36094C7.08783 3.10177 6.86439 2.9164 6.59023 2.8772L5.80418 2.76485C5.78878 2.76264 5.77548 2.75314 5.76856 2.73939L5.417 2.0386C5.29441 1.79424 5.04622 1.64242 4.76923 1.64242C4.49224 1.64242 4.244 1.79419 4.12141 2.0386L3.76989 2.73939C3.76297 2.75314 3.74963 2.76264 3.73431 2.76485L2.94818 2.8772C2.67407 2.9164 2.45062 3.10177 2.36505 3.36094C2.27947 3.62011 2.34951 3.89926 2.54784 4.08944L3.11668 4.63501C3.12782 4.64571 3.1329 4.66104 3.13025 4.67616L2.99598 5.44643C2.94917 5.71501 3.05927 5.98139 3.28334 6.14152C3.50746 6.30178 3.79896 6.32242 4.04414 6.19566L4.74726 5.83196C4.76101 5.82485 4.77745 5.82485 4.79124 5.83196L5.4944 6.19566C5.60105 6.25077 5.71641 6.27804 5.83123 6.27804C5.98037 6.27804 6.12857 6.23203 6.2552 6.14152C6.47918 5.98135 6.58929 5.71497 6.54248 5.44643ZM5.95058 4.15932C5.78024 4.32263 5.70257 4.5578 5.74278 4.78842L5.87705 5.55873C5.8784 5.56651 5.88203 5.5872 5.85827 5.60417C5.83455 5.62123 5.81559 5.61133 5.8085 5.6077L5.10538 5.24401C5.00013 5.18955 4.88468 5.16237 4.76923 5.16237C4.65378 5.16237 4.53828 5.1896 4.43308 5.24401L3.73 5.6077C3.7229 5.61133 3.70399 5.62118 3.68023 5.60417C3.65647 5.58724 3.66006 5.56651 3.66145 5.55873L3.79572 4.78842C3.83593 4.5578 3.75826 4.32263 3.58796 4.15936L3.01916 3.61379C3.01341 3.60827 2.99813 3.59359 3.00716 3.56615C3.01624 3.53866 3.0374 3.53561 3.0453 3.5345L3.83148 3.42215C4.06678 3.38847 4.2701 3.24311 4.37535 3.03335L4.72691 2.33256C4.73046 2.32544 4.73989 2.30666 4.76927 2.30666C4.79865 2.30666 4.80808 2.32549 4.81163 2.33256L5.16319 3.0333C5.2684 3.24311 5.47167 3.38847 5.70711 3.4222L6.4932 3.53455C6.50115 3.53569 6.52226 3.5387 6.53134 3.56619C6.54041 3.59364 6.52514 3.60831 6.51939 3.61383L5.95058 4.15932Z" fill="white"/>
<path d="M20.4524 4.08939C20.6508 3.89921 20.7209 3.62006 20.6352 3.36089C20.5497 3.10171 20.3262 2.91635 20.0521 2.87715L19.2661 2.7648C19.2506 2.76259 19.2373 2.75308 19.2304 2.73934L18.8788 2.03855C18.7562 1.79418 18.508 1.64236 18.2311 1.64236C17.9541 1.64236 17.7058 1.79414 17.5832 2.03855L17.2317 2.7393C17.2248 2.75304 17.2115 2.76259 17.1961 2.7648L16.41 2.87715C16.1358 2.91635 15.9124 3.10171 15.8268 3.36093C15.7413 3.6201 15.8113 3.89925 16.0096 4.08939L16.5785 4.63496C16.5896 4.64565 16.5947 4.66099 16.592 4.67611L16.4578 5.44638C16.411 5.71496 16.5211 5.98134 16.7451 6.14151C16.9691 6.30172 17.2607 6.32245 17.5059 6.19565L18.209 5.83195C18.2227 5.82488 18.2392 5.82479 18.2529 5.83195L18.9561 6.19565C19.0627 6.25076 19.1781 6.27803 19.2929 6.27803C19.4421 6.27803 19.5903 6.23202 19.7169 6.14151C19.9409 5.98134 20.051 5.71496 20.0042 5.44642L19.8699 4.67615C19.8673 4.66108 19.8724 4.6457 19.8835 4.635L20.4524 4.08939ZM19.4123 4.15935C19.242 4.32266 19.1644 4.55783 19.2046 4.78841L19.3389 5.55877C19.3402 5.56655 19.3438 5.58723 19.3201 5.60416C19.2964 5.62113 19.2773 5.61132 19.2703 5.60769L18.5672 5.24404C18.462 5.18954 18.3465 5.16236 18.2311 5.16236C18.1156 5.16236 18.0001 5.18959 17.8949 5.244L17.1917 5.60769C17.1847 5.61132 17.1658 5.62118 17.142 5.60416C17.1183 5.58723 17.1219 5.56655 17.1232 5.55872L17.2574 4.78854C17.2977 4.55792 17.22 4.32271 17.0497 4.15935L16.4809 3.61374C16.4752 3.60826 16.4599 3.59358 16.469 3.56614C16.4781 3.53865 16.4992 3.5356 16.5071 3.53449L17.2933 3.42214C17.5286 3.38846 17.7318 3.2431 17.8372 3.03334L18.1887 2.33255C18.1923 2.32543 18.2018 2.30665 18.2311 2.30665C18.2604 2.30665 18.2699 2.32548 18.2734 2.33255L18.625 3.0333C18.7301 3.2431 18.9335 3.38846 19.1689 3.42219L19.955 3.53454C19.9629 3.53569 19.9841 3.53869 19.9931 3.56618C20.0022 3.59363 19.9869 3.6083 19.9812 3.61383L19.4123 4.15935Z" fill="white"/>
</svg>
