<svg width="21" height="21" viewBox="0 0 21 21" fill="none" xmlns="http://www.w3.org/2000/svg">
<path d="M20.6888 8.83651L18.9844 8.41188C18.7738 7.55219 18.4353 6.73541 17.9756 5.97744L18.8804 4.47217C18.9775 4.31078 18.9521 4.10402 18.8189 3.97084L17.0289 2.18088C16.8958 2.0477 16.689 2.02235 16.5276 2.11936L15.0223 3.0242C14.2644 2.56446 13.4476 2.226 12.5879 2.01538L12.1634 0.311021C12.1178 0.128256 11.9537 0 11.7654 0H9.23447C9.04613 0 8.88203 0.128256 8.83646 0.311021L8.41187 2.01546C7.55223 2.22608 6.73537 2.56462 5.97745 3.02432L4.47219 2.11944C4.31075 2.02239 4.10399 2.04774 3.97086 2.18096L2.18091 3.97088C2.04773 4.10406 2.02238 4.31082 2.11938 4.47221L3.02422 5.97748C2.56448 6.73545 2.22602 7.55219 2.01541 8.41192L0.311019 8.83651C0.128255 8.88204 0 9.04618 0 9.23449V11.7654C0 11.9538 0.128255 12.1179 0.311019 12.1634L2.01545 12.588C2.22606 13.4477 2.56452 14.2645 3.0243 15.0225L2.11942 16.5277C2.02238 16.6892 2.04777 16.8959 2.18095 17.0291L3.9709 18.819C4.10403 18.9522 4.31083 18.9776 4.47223 18.8806L5.97749 17.9757C6.73549 18.4354 7.55223 18.7739 8.41191 18.9845L8.8365 20.689C8.88203 20.8717 9.04617 21 9.23451 21H11.7654C11.9538 21 12.1179 20.8717 12.1635 20.689L12.5881 18.9845C13.4477 18.7739 14.2645 18.4355 15.0225 17.9757L16.5278 18.8806C16.6892 18.9776 16.8959 18.9522 17.0291 18.819L18.819 17.0291C18.9522 16.8959 18.9776 16.6891 18.8806 16.5277L17.9757 15.0225C18.4355 14.2645 18.7739 13.4477 18.9845 12.588L20.689 12.1634C20.8717 12.1179 21 11.9538 21 11.7654V9.23449C20.9998 9.04618 20.8716 8.88204 20.6888 8.83651ZM20.1795 11.4449L18.5418 11.8529C18.3898 11.8908 18.2727 12.0119 18.2399 12.165C18.0391 13.1032 17.6724 13.9881 17.15 14.7952C17.0649 14.9267 17.0621 15.0951 17.1428 15.2293L18.0122 16.6756L16.6756 18.0123L15.2292 17.1429C15.095 17.0622 14.9265 17.065 14.7951 17.1501C13.988 17.6725 13.1031 18.0392 12.165 18.24C12.0118 18.2728 11.8907 18.3899 11.8528 18.5419L11.4449 20.1796H9.55497L9.14699 18.5419C9.10913 18.3899 8.98801 18.2728 8.83486 18.24C7.89672 18.0392 7.01185 17.6725 6.20475 17.1501C6.07322 17.065 5.90477 17.0622 5.77061 17.1429L4.32428 18.0123L2.9876 16.6757L3.85704 15.2294C3.93772 15.0952 3.93493 14.9267 3.84982 14.7952C3.32741 13.9881 2.96069 13.1032 2.75988 12.1651C2.72711 12.0119 2.60997 11.8908 2.45796 11.853L0.820306 11.4449V9.55502L2.45801 9.14704C2.61001 9.10918 2.72715 8.98806 2.75992 8.83491C2.96073 7.89672 3.32745 7.01185 3.84982 6.20479C3.93493 6.0733 3.93772 5.90484 3.85704 5.77064L2.9876 4.32427L4.32424 2.98761L5.77057 3.85702C5.90481 3.93774 6.07326 3.93491 6.20475 3.8498C7.01177 3.32743 7.89664 2.96071 8.83486 2.7599C8.98801 2.72712 9.10913 2.60998 9.14699 2.45798L9.55497 0.820311H11.4449L11.8528 2.45802C11.8907 2.61002 12.0118 2.72716 12.165 2.75994C13.1032 2.96075 13.988 3.32747 14.7951 3.84984C14.9265 3.93495 15.095 3.93774 15.2292 3.85706L16.6756 2.98765L18.0122 4.32431L17.1428 5.77064C17.0621 5.90484 17.0649 6.07334 17.15 6.20479C17.6724 7.01185 18.0391 7.89672 18.2399 8.83491C18.2727 8.98806 18.3898 9.10918 18.5418 9.14704L20.1795 9.55502V11.4449Z" fill="white"/>
<path d="M10.4999 4.34765C9.54333 4.34765 8.62656 4.56126 7.775 4.98257C7.57197 5.08302 7.48879 5.32903 7.58928 5.53206C7.68973 5.73508 7.9357 5.8183 8.13876 5.71777C8.87622 5.35294 9.67064 5.16796 10.4999 5.16796C13.4399 5.16796 15.8319 7.55991 15.8319 10.5C15.8319 13.4401 13.4399 15.832 10.4999 15.832C7.55983 15.832 5.1679 13.4401 5.1679 10.5C5.1679 9.5442 5.42359 8.60679 5.90741 7.7891C6.02278 7.59415 5.95823 7.34261 5.76328 7.22723C5.56837 7.11193 5.31679 7.17641 5.20141 7.37136C4.64282 8.31545 4.3476 9.39728 4.3476 10.5C4.3476 13.8924 7.10752 16.6523 10.4999 16.6523C13.8923 16.6523 16.6522 13.8924 16.6522 10.5C16.6522 7.10759 13.8923 4.34765 10.4999 4.34765Z" fill="white"/>
<path d="M10.4999 7.54686C8.87157 7.54686 7.54681 8.87162 7.54681 10.5C7.54681 12.1283 8.87157 13.4531 10.4999 13.4531C12.1283 13.4531 13.453 12.1283 13.453 10.5C13.453 8.87162 12.1283 7.54686 10.4999 7.54686ZM10.4999 12.6328C9.32388 12.6328 8.36712 11.676 8.36712 10.5C8.36712 9.32394 9.32388 8.36717 10.4999 8.36717C11.6759 8.36717 12.6327 9.32394 12.6327 10.5C12.6327 11.676 11.6759 12.6328 10.4999 12.6328Z" fill="white"/>
<path d="M6.87664 6.00837C6.80036 5.93208 6.69454 5.88819 6.58667 5.88819C6.4788 5.88819 6.37298 5.93208 6.29669 6.00837C6.2204 6.08466 6.17651 6.19048 6.17651 6.29835C6.17651 6.40622 6.2204 6.51204 6.29669 6.58833C6.37298 6.66462 6.4788 6.7085 6.58667 6.7085C6.69454 6.7085 6.80036 6.66462 6.87664 6.58833C6.95293 6.51204 6.99682 6.40622 6.99682 6.29835C6.99682 6.19048 6.95293 6.08466 6.87664 6.00837Z" fill="white"/>
</svg>
