<svg width="16" height="17" viewBox="0 0 16 17" fill="none" xmlns="http://www.w3.org/2000/svg">
<path d="M12.3906 10.5479C11.4491 10.5479 10.6124 11.0055 10.0911 11.7098L5.60285 9.41611C5.67815 9.16029 5.71875 8.88976 5.71875 8.6099C5.71875 8.23084 5.64444 7.86887 5.50989 7.53753L10.2139 4.71126C10.7387 5.3273 11.5198 5.71875 12.3906 5.71875C13.9673 5.71875 15.25 4.43603 15.25 2.85937C15.25 1.28272 13.9673 0 12.3906 0C10.814 0 9.53125 1.28272 9.53125 2.85937C9.53125 3.22379 9.59991 3.57241 9.72473 3.8932L5.00899 6.72652C4.48452 6.12866 3.71531 5.75052 2.85938 5.75052C1.28272 5.75052 0 7.03324 0 8.6099C0 10.1866 1.28272 11.4693 2.85938 11.4693C3.81638 11.4693 4.66498 10.9966 5.18427 10.2726L9.65951 12.5596C9.57617 12.8276 9.53125 13.1123 9.53125 13.4073C9.53125 14.9839 10.814 16.2667 12.3906 16.2667C13.9673 16.2667 15.25 14.9839 15.25 13.4073C15.25 11.8306 13.9673 10.5479 12.3906 10.5479ZM12.3906 0.953125C13.4417 0.953125 14.2969 1.80827 14.2969 2.85937C14.2969 3.91048 13.4417 4.76562 12.3906 4.76562C11.3395 4.76562 10.4844 3.91048 10.4844 2.85937C10.4844 1.80827 11.3395 0.953125 12.3906 0.953125ZM2.85938 10.5161C1.80827 10.5161 4.9381 11.0381 5.00899 8.6099C4.64762 6.1 1.80827 6.70365 2.85938 6.70365C3.91048 6.70365 4.76562 7.55879 4.76562 8.6099C4.76562 9.661 3.91048 10.5161 2.85938 10.5161ZM12.3906 15.3135C11.3395 15.3135 10.4844 14.4584 10.4844 13.4073C10.4844 12.3562 11.3395 11.501 12.3906 11.501C13.4417 11.501 14.2969 12.3562 14.2969 13.4073C14.2969 14.4584 13.4417 15.3135 12.3906 15.3135Z" fill="white"/>
</svg>
