<svg width="15" height="15" viewBox="0 0 15 15" fill="none" xmlns="http://www.w3.org/2000/svg">
<path d="M5.08569 7.03064H9.9695C10.064 7.03064 10.1458 6.99676 10.2148 6.92895C10.2838 6.86115 10.3184 6.78087 10.3184 6.68808C10.3184 6.59529 10.2838 6.51505 10.2148 6.44716L7.77287 4.04907C7.70388 3.98135 7.62215 3.94737 7.52761 3.94737C7.43307 3.94737 7.35134 3.98135 7.28228 4.04907L4.84037 6.44716C4.77131 6.51497 4.73682 6.59529 4.73682 6.68808C4.73682 6.78085 4.77131 6.86115 4.84037 6.92895C4.9095 6.99676 4.99123 7.03064 5.08569 7.03064Z" fill="#ED686D"/>
<path d="M9.9695 8.39929H5.08569C4.99115 8.39929 4.90942 8.43319 4.84037 8.50093C4.77131 8.56874 4.73682 8.64901 4.73682 8.74179C4.73682 8.83458 4.77131 8.9149 4.84037 8.98268L7.28228 11.3807C7.35141 11.4485 7.43314 11.4825 7.52761 11.4825C7.62207 11.4825 7.70388 11.4485 7.77287 11.3807L10.2148 8.98266C10.2838 8.9149 10.3184 8.83458 10.3184 8.74177C10.3184 8.64901 10.2838 8.56874 10.2148 8.50091C10.1458 8.43311 10.064 8.39929 9.9695 8.39929Z" fill="#ED686D"/>
<rect x="0.5" y="0.5" width="14" height="14" rx="2.5" stroke="#ED686D"/>
</svg>
