<svg width="22" height="22" viewBox="0 0 22 22" fill="none" xmlns="http://www.w3.org/2000/svg">
<path d="M21.054 20.3522H0V21.054H21.054V20.3522Z" fill="black"/>
<path d="M1.40363 19.6504H4.91264C5.10642 19.6504 5.26354 19.4933 5.26354 19.2995V12.9833C5.26354 12.7896 5.10642 12.6324 4.91264 12.6324H1.40363C1.20985 12.6324 1.05273 12.7896 1.05273 12.9833V19.2995C1.05273 19.4933 1.20985 19.6504 1.40363 19.6504ZM1.75453 13.3342H4.56174V18.9486H1.75453V13.3342Z" fill="black"/>
<path d="M11.2288 19.6504H14.7378C14.9316 19.6504 15.0887 19.4933 15.0887 19.2995V8.77253C15.0887 8.57875 14.9316 8.42163 14.7378 8.42163H11.2288C11.035 8.42163 10.8779 8.57875 10.8779 8.77253V19.2995C10.8779 19.4933 11.035 19.6504 11.2288 19.6504ZM11.5797 9.12343H14.3869V18.9486H11.5797V9.12343Z" fill="black"/>
<path d="M6.31635 19.6504H9.82536C10.0191 19.6504 10.1763 19.4933 10.1763 19.2995V4.56172C10.1763 4.36793 10.0191 4.21082 9.82536 4.21082H6.31635C6.12257 4.21082 5.96545 4.36793 5.96545 4.56172V19.2995C5.96545 19.4933 6.12257 19.6504 6.31635 19.6504ZM6.66725 4.91262H9.47445V18.9486H6.66725V4.91262Z" fill="black"/>
<path d="M16.1414 19.6504H19.6504C19.8442 19.6504 20.0013 19.4933 20.0013 19.2995V0.3509C20.0013 0.157116 19.8442 0 19.6504 0H16.1414C15.9476 0 15.7905 0.157116 15.7905 0.3509V19.2995C15.7905 19.4933 15.9476 19.6504 16.1414 19.6504ZM16.4923 0.7018H19.2995V18.9486H16.4923V0.7018Z" fill="black"/>
</svg>
