<svg width="22" height="23" viewBox="0 0 22 23" fill="none" xmlns="http://www.w3.org/2000/svg">
<path d="M21.2725 13.3022H20.9327V10.2409C20.9327 9.7563 20.6914 9.3272 20.3231 9.06647V8.64966C20.3231 8.04503 19.8312 7.55317 19.2266 7.55317H18.9728L19.9437 6.12844C20.2692 5.6509 20.1454 4.99758 19.6679 4.67209L13.0796 0.182338C12.8483 0.0246508 12.5694 -0.0335447 12.2943 0.0186627C12.0192 0.0707815 11.7809 0.226872 11.6232 0.458234L5.9367 8.80269H4.35429L4.73606 4.93792C4.74036 4.89436 4.76866 4.85661 4.80814 4.84175C5.30001 4.6563 5.72627 4.30996 6.00838 3.86658C6.0306 3.83167 6.07252 3.81171 6.1159 3.8161L8.59786 4.0613C8.77582 4.07856 8.93412 3.94895 8.95169 3.77108C8.96925 3.59321 8.83934 3.43481 8.66147 3.41725L6.17951 3.17205C5.89141 3.14383 5.61667 3.27659 5.46231 3.51913C5.2549 3.84515 4.94148 4.09976 4.57984 4.23611C4.30762 4.33875 4.12071 4.58324 4.09196 4.87427L3.70393 8.80264H3.29129L3.89506 2.69016C3.9168 2.47015 4.11316 2.30852 4.33344 2.33056L9.34899 2.82602C9.52686 2.84319 9.68526 2.71367 9.70282 2.5358C9.72039 2.35793 9.59047 2.19953 9.4126 2.18197L4.39705 1.68651C3.82201 1.62977 3.30779 2.05138 3.25097 2.62651L2.76429 7.55317H1.93549C1.33091 7.55317 0.839001 8.04503 0.839001 8.64966V8.93398C0.344383 9.16171 0 9.66169 0 10.2409V21.2721C0 22.0652 0.645208 22.7104 1.43834 22.7104H19.4944C20.2874 22.7104 20.9327 22.0652 20.9327 21.2721V18.2109H21.2725C21.6737 18.2109 22 17.8846 22 17.4835V14.0297C22 13.6285 21.6737 13.3022 21.2725 13.3022ZM19.2266 8.20042C19.4743 8.20037 19.6759 8.40193 19.6759 8.6497V8.81457C19.6163 8.80703 19.5559 8.80273 19.4944 8.80273H18.1213L18.5317 8.20042H19.2266ZM12.158 0.822666C12.2184 0.734175 12.3095 0.674471 12.4147 0.654511C12.4399 0.649765 12.4651 0.64737 12.4902 0.64737C12.5699 0.64737 12.6478 0.671234 12.7151 0.717098L19.3034 5.20685C19.4861 5.33136 19.5334 5.58126 19.409 5.76392L17.3381 8.8026H16.8412L17.8564 7.3128C18.0211 7.07119 18.0347 6.76371 17.8918 6.5103C17.7018 6.17364 17.6248 5.77723 17.6749 5.39403C17.7122 5.10895 17.5868 4.83066 17.3476 4.6677L13.9322 2.34023C13.693 2.17722 13.3881 2.16227 13.1364 2.30124C12.7982 2.48798 12.4011 2.5613 12.0183 2.50772C11.7344 2.46789 11.4465 2.59608 11.2843 2.83405L7.21687 8.80264H6.7199L12.158 0.822666ZM12.3006 6.31802C10.8913 6.31802 9.73449 7.41686 9.64023 8.80264H7.99998L11.819 3.19853C11.8191 3.19853 11.8191 3.19853 11.8191 3.19853C11.8408 3.16663 11.8767 3.14765 11.9137 3.14765C11.9186 3.14765 11.9235 3.148 11.9284 3.14867C12.4491 3.2215 12.9891 3.12188 13.4492 2.86785C13.4854 2.8478 13.5319 2.85068 13.5677 2.87508L16.9831 5.20259C17.0189 5.22699 17.0385 5.26921 17.0332 5.3102C16.965 5.83134 17.0698 6.37045 17.3281 6.8283C17.3488 6.86507 17.3463 6.91217 17.3217 6.94832L16.0581 8.8026H14.961C14.8667 7.41686 13.7099 6.31802 12.3006 6.31802ZM14.312 8.80269H10.2891C10.3818 7.77411 11.2483 6.96527 12.3006 6.96527C13.3529 6.96522 14.2194 7.77411 14.312 8.80269ZM1.4862 8.64966C1.4862 8.40188 1.68772 8.20033 1.93549 8.20033H2.70037L2.64089 8.80264H1.4862V8.64966ZM0.647204 10.2409C0.647204 9.80474 1.0021 9.44985 1.43834 9.44985H19.4944C19.9306 9.44985 20.2854 9.80474 20.2854 10.2409V11.1389H0.647204V10.2409ZM20.2854 21.2721C20.2854 21.7083 19.9306 22.0632 19.4944 22.0632H1.43834C1.0021 22.0632 0.647204 21.7083 0.647204 21.2721V20.3742H2.39227C2.57103 20.3742 2.71585 20.2293 2.71585 20.0506C2.71585 19.8719 2.57098 19.727 2.39227 19.727H0.647204V11.7861H20.2854V13.3022H17.2086H17.2086C16.2391 13.3022 15.3994 13.8673 15.0008 14.6853C14.9995 14.688 14.998 14.6907 14.9966 14.6934C14.9932 14.7004 14.9903 14.7076 14.987 14.7146C14.9396 14.8155 14.8983 14.9198 14.8647 15.0275C14.8647 15.0278 14.8646 15.0281 14.8645 15.0284C14.7928 15.2586 14.7542 15.5031 14.7542 15.7566C14.7542 17.1099 15.8552 18.2109 17.2085 18.2109H17.2086H20.2854V19.727H4.46433C4.28558 19.727 4.14075 19.8719 4.14075 20.0506C4.14075 20.2293 4.28562 20.3742 4.46433 20.3742H20.2854V21.2721ZM21.3528 17.4834C21.3528 17.5277 21.3168 17.5637 21.2725 17.5637H17.2087C16.5236 17.5637 15.9263 17.1805 15.6199 16.6173C15.606 16.5917 15.5927 16.5657 15.5799 16.5394C15.5545 16.4867 15.5316 16.4326 15.5113 16.3773C15.4403 16.1836 15.4015 15.9745 15.4015 15.7566C15.4015 15.5386 15.4403 15.3295 15.5113 15.1358C15.5316 15.0805 15.5546 15.0265 15.5799 14.9738C15.5927 14.9475 15.606 14.9215 15.6199 14.8959C15.9263 14.3326 16.5236 13.9494 17.2087 13.9494H21.2725C21.3168 13.9494 21.3528 13.9854 21.3528 14.0297V17.4834Z" fill="#EB1C24"/>
</svg>
